<?xml version="1.0" standalone="no"?>
<!DOCTYPE svg PUBLIC "-//W3C//DTD SVG 20010904//EN"
 "http://www.w3.org/TR/2001/REC-SVG-20010904/DTD/svg10.dtd">
<svg version="1.0" xmlns="http://www.w3.org/2000/svg"
 width="120.000000pt" height="120.000000pt" viewBox="0 0 120.000000 120.000000"
 preserveAspectRatio="xMidYMid meet">
<metadata>
Created by potrace 1.14, written by Peter Selinger 2001-2017
</metadata>
<g transform="translate(0.000000,120.000000) scale(0.100000,-0.100000)"
fill="#000000" stroke="none">
<path d="M430 1190 c-8 -4 -25 -12 -37 -18 -13 -7 -30 -12 -38 -12 -8 0 -15
-5 -15 -11 0 -5 -4 -8 -8 -5 -5 3 -18 -4 -30 -14 -12 -11 -24 -20 -28 -20 -7
0 -57 -39 -89 -69 -45 -42 -115 -138 -115 -158 0 -7 -4 -13 -10 -13 -5 0 -10
-9 -10 -19 0 -11 -4 -22 -9 -26 -6 -3 -13 -26 -17 -50 -3 -25 -9 -43 -13 -40
-4 2 -8 -2 -8 -10 0 -8 5 -12 10 -8 5 3 4 -4 -2 -15 -12 -22 -15 -149 -5 -176
3 -9 13 -16 21 -16 8 0 11 5 8 10 -3 5 -1 10 4 10 6 0 11 4 11 10 0 10 20 37
53 72 9 10 17 22 17 27 0 5 7 12 16 15 8 3 13 10 9 15 -3 5 -1 13 5 16 11 7
27 -8 65 -61 44 -62 75 -87 75 -63 0 9 38 65 65 95 38 42 55 65 55 74 0 5 6
13 13 17 8 4 22 22 33 38 10 17 23 35 29 41 26 29 60 78 58 86 -2 4 5 8 14 8
9 0 14 3 10 6 -3 3 3 15 13 27 l20 20 21 -26 c11 -15 26 -33 33 -40 6 -6 23
-28 36 -47 13 -19 29 -38 35 -42 5 -4 7 -8 3 -8 -5 0 0 -8 10 -18 31 -33 52
-62 45 -62 -3 0 4 -8 15 -19 12 -10 22 -21 22 -25 0 -6 30 -43 58 -72 6 -7 12
-15 12 -18 0 -8 33 -46 40 -46 3 0 14 16 24 35 11 19 23 35 27 35 4 0 11 9 14
20 4 11 11 18 16 15 5 -4 9 2 9 12 0 12 7 19 20 19 15 0 20 -6 18 -21 -2 -12
-10 -19 -18 -17 -8 2 -12 0 -8 -4 5 -4 -1 -14 -12 -21 -11 -8 -17 -19 -14 -25
4 -7 2 -8 -4 -4 -7 4 -12 3 -12 -2 0 -4 -9 -18 -21 -31 -11 -12 -18 -29 -15
-37 4 -10 2 -13 -6 -8 -6 4 -3 -4 8 -18 10 -14 23 -23 28 -20 5 3 6 1 3 -5 -3
-5 2 -17 11 -26 24 -22 42 -45 42 -52 0 -4 6 -13 13 -20 29 -33 37 -45 37 -55
0 -18 29 -11 40 10 6 11 8 20 4 20 -4 0 0 8 8 18 14 15 30 60 32 88 1 11 -27
53 -51 79 -7 8 -13 19 -13 25 0 6 -5 8 -10 5 -5 -3 -10 -1 -10 5 0 7 -9 23
-20 38 -15 19 -18 28 -9 36 8 8 13 7 16 -2 3 -7 10 -18 17 -25 6 -6 25 -30 41
-52 48 -64 52 -67 57 -42 11 66 -6 272 -22 262 -5 -3 -7 3 -5 12 1 10 -4 28
-11 41 -8 12 -12 22 -9 22 4 0 -3 13 -14 29 -12 16 -21 35 -21 42 0 7 -3 9 -7
6 -6 -6 -19 12 -39 52 -11 21 -97 101 -109 101 -3 0 -15 9 -27 20 -24 22 -96
57 -166 79 -36 11 -308 13 -332 1z m637 -629 c11 -29 10 -29 -32 -33 -28 -2
-42 1 -42 9 0 7 3 10 7 8 4 -2 13 7 20 20 18 33 33 31 47 -4z"/>
<path d="M573 896 c-10 -13 -24 -33 -32 -44 -8 -12 -19 -18 -24 -15 -6 3 -7 2
-4 -4 8 -12 -37 -76 -46 -66 -4 3 -7 -1 -7 -10 0 -10 -5 -17 -11 -17 -5 0 -8
-4 -5 -9 3 -5 -9 -25 -27 -44 -17 -20 -41 -48 -52 -63 -11 -15 -26 -33 -33
-41 -7 -7 -11 -13 -8 -13 5 0 -14 -26 -40 -54 -5 -6 -13 -19 -17 -29 -4 -11
-12 -15 -18 -11 -7 4 -9 3 -6 -3 3 -5 -7 -24 -23 -42 -17 -18 -30 -36 -30 -42
0 -5 -4 -9 -10 -9 -5 0 -10 -7 -10 -15 0 -8 -4 -15 -8 -15 -10 0 -47 -62 -46
-77 3 -31 5 -34 14 -28 6 3 10 1 10 -5 0 -16 111 -120 128 -120 7 0 10 -5 7
-10 -4 -6 -3 -10 2 -9 15 2 53 -13 48 -20 -2 -4 2 -8 10 -9 8 -1 22 -3 30 -4
8 -1 15 -5 15 -10 0 -4 9 -8 19 -8 11 0 23 -5 27 -11 3 -6 15 -9 25 -6 11 3
19 2 19 -2 0 -9 10 -10 135 -10 124 1 125 1 125 10 0 4 8 5 19 2 10 -3 22 0
25 6 4 6 16 11 27 11 10 0 19 4 19 8 0 4 9 8 21 9 11 1 36 13 54 27 19 14 36
26 39 26 4 0 20 12 37 28 17 15 35 26 40 24 5 -1 9 1 9 5 0 7 16 28 60 80 5 7
10 15 10 19 0 6 -98 143 -110 154 -19 17 -115 155 -112 162 1 5 -1 7 -5 5 -5
-3 -14 1 -21 9 -7 8 -9 14 -5 14 4 0 4 4 -2 8 -19 13 -85 100 -85 111 0 6 -3
11 -7 11 -5 0 -24 23 -43 50 -19 27 -38 50 -42 50 -5 0 -8 7 -8 16 0 15 -37
53 -52 54 -4 0 -15 -11 -25 -24z m70 -118 c9 -10 14 -18 10 -18 -5 0 -3 -4 3
-8 13 -9 74 -101 74 -112 0 -4 4 -10 8 -12 10 -4 52 -64 52 -73 0 -4 -6 -2
-13 4 -8 6 -17 8 -20 4 -4 -3 -7 -1 -7 5 0 7 -11 12 -25 12 -14 0 -25 4 -25 8
0 4 -11 8 -25 8 -14 0 -25 -2 -25 -5 0 -4 -11 -19 -24 -34 -25 -29 -46 -29
-46 0 0 9 -3 14 -6 10 -4 -3 -14 4 -24 16 l-18 21 -61 -26 c-68 -30 -74 -20
-23 37 6 7 12 18 12 23 0 6 7 13 16 16 9 4 14 9 11 12 -3 4 -1 11 4 18 5 6 27
36 49 66 61 86 62 86 74 65 6 -10 19 -27 29 -37z"/>
<path d="M125 596 c-22 -31 -43 -56 -47 -56 -5 0 -8 -5 -8 -11 0 -7 -11 -21
-23 -33 -32 -29 -29 -50 22 -153 8 -18 19 -33 23 -33 4 0 28 30 54 68 26 37
56 75 66 85 10 10 24 30 32 45 13 26 13 29 -5 40 -10 7 -19 17 -19 23 0 5 -11
20 -23 32 -13 12 -26 28 -28 35 -3 8 -21 -10 -44 -42z m48 -19 c39 -41 39 -43
-9 -46 l-46 -2 18 30 c21 35 21 35 37 18z"/>
</g>
</svg>
